<?xml version="1.0" encoding="UTF-8" standalone="no"?>
<!-- Created with Inkscape (http://www.inkscape.org/) -->

<svg
   version="1.1"
   id="svg1"
   width="512"
   height="449.56097"
   viewBox="0 0 512 449.56097"
   sodipodi:docname="grafanaflespi.svg"
   inkscape:version="1.3.1 (9b9bdc1480, 2023-11-25, custom)"
   xmlns:inkscape="http://www.inkscape.org/namespaces/inkscape"
   xmlns:sodipodi="http://sodipodi.sourceforge.net/DTD/sodipodi-0.dtd"
   xmlns:xlink="http://www.w3.org/1999/xlink"
   xmlns="http://www.w3.org/2000/svg"
   xmlns:svg="http://www.w3.org/2000/svg"
   xmlns:rdf="http://www.w3.org/1999/02/22-rdf-syntax-ns#"
   xmlns:cc="http://creativecommons.org/ns#"
   xmlns:dc="http://purl.org/dc/elements/1.1/">
  <title
     id="title3">Flespi Grafana</title>
  <defs
     id="defs1">
    <linearGradient
       id="linearGradient2"
       inkscape:collect="always">
      <stop
         style="stop-color:#ff001f;stop-opacity:1;"
         offset="0"
         id="stop2" />
      <stop
         style="stop-color:#f9c828;stop-opacity:1;"
         offset="1"
         id="stop3" />
    </linearGradient>
    <linearGradient
       inkscape:collect="always"
       xlink:href="#linearGradient2"
       id="linearGradient3"
       x1="198.11386"
       y1="109.6125"
       x2="477.28677"
       y2="363.10373"
       gradientUnits="userSpaceOnUse"
       gradientTransform="matrix(0.83114271,0,0,0.83114271,41.406041,1.8592631)" />
  </defs>
  <sodipodi:namedview
     id="namedview1"
     pagecolor="#505050"
     bordercolor="#ffffff"
     borderopacity="1"
     inkscape:showpageshadow="0"
     inkscape:pageopacity="0"
     inkscape:pagecheckerboard="1"
     inkscape:deskcolor="#d1d1d1"
     showgrid="false"
     inkscape:zoom="1.0201488"
     inkscape:cx="86.752046"
     inkscape:cy="285.74262"
     inkscape:window-width="1920"
     inkscape:window-height="1013"
     inkscape:window-x="1920"
     inkscape:window-y="44"
     inkscape:window-maximized="1"
     inkscape:current-layer="g1" />
  <g
     inkscape:groupmode="layer"
     inkscape:label="Image"
     id="g1"
     style="display:inline">
    <path
       style="display:inline;fill:url(#linearGradient3);stroke-width:0.831143"
       d="m 328.64897,413.26616 c -15.66343,-4.25755 -28.80415,-12.34693 -37.7035,-23.21014 l -2.63463,-3.21603 -13.74156,-0.4697 c -14.05829,-0.48052 -24.5337,-1.96917 -38.46429,-5.46609 l -7.87823,-1.97763 -4.5335,3.05686 c -15.25197,10.28417 -34.55094,16.31479 -52.83201,16.50915 l -9.29022,0.0988 -2.03841,-5.68593 c -5.12764,-14.30307 -5.95485,-35.07433 -2.0037,-50.31369 l 1.87694,-7.23926 -7.35824,-8.82831 c -4.04703,-4.85557 -9.69381,-12.62285 -12.54838,-17.26062 l -5.19015,-8.4323 -4.56194,-0.59447 C 117.54432,298.64662 98.015213,290.08645 84.5215,280.41309 76.813152,274.88714 62.683295,261.55968 62.683295,259.81503 c 0,-0.60156 1.798345,-4.89008 3.996322,-9.53005 7.827869,-16.5248 18.887351,-30.58439 31.895543,-40.54785 l 6.66264,-5.10318 v -5.44132 c 0,-12.89949 3.45106,-31.45325 8.87756,-47.72794 22.53649,-67.589599 87.43575,-114.14331 159.12409,-114.14331 25.81021,0 52.55929,6.381524 75.1786,17.935354 4.77795,2.440553 8.56796,4.551401 8.42225,4.690773 -0.14572,0.139373 -6.5427,1.306294 -14.21552,2.593157 -29.80361,4.998579 -57.49793,14.759261 -82.49052,29.073249 -17.33715,9.929487 -33.85168,21.888967 -45.23214,32.756157 -3.84738,3.67386 -4.24208,4.31816 -2.39149,3.90386 17.30974,-3.87521 39.28159,-2.5555 58.51244,3.51448 6.85823,2.16472 20.44395,8.39746 25.44075,11.67149 1.48131,0.97059 5.32023,1.3827 14.65801,1.57353 38.59156,0.78868 68.78544,17.13815 89.31031,48.36 6.39514,9.7281 11.10145,20.74655 14.35487,33.60775 2.40764,9.51773 2.57163,11.22262 2.33184,24.24251 l -0.25793,14.00478 5.38082,5.51224 c 7.95795,8.15232 14.60572,21.48672 16.69924,33.49609 0.53872,3.09028 0.39623,3.29783 -4.73508,6.89723 -10.16452,7.13001 -22.63722,11.54935 -32.85965,11.64286 -3.88847,0.0356 -4.08533,0.17718 -7.77499,5.59301 -6.87514,10.09161 -20.81506,24.67126 -29.90348,31.27582 -3.3795,2.45589 -3.55779,2.82557 -3.79268,7.86422 -0.36945,7.92514 -2.45434,15.01057 -7.31377,24.85558 -4.89541,9.91789 -14.30332,22.65141 -16.64369,22.52706 -0.82834,-0.044 -4.09925,-0.78489 -7.26867,-1.64639 z m -23.05036,-82.04944 c 20.09012,-4.765 38.92653,-17.79552 50.49382,-34.93026 5.13785,-7.61075 10.84997,-20.14523 13.37433,-29.3481 1.67068,-6.09073 2.07719,-9.83063 2.12,-19.50415 0.0496,-11.2109 -0.12368,-12.47422 -2.73756,-19.95902 -8.50353,-24.34973 -27.65017,-40.9021 -52.28126,-45.1974 -14.65795,-2.55613 -23.7587,-1.36879 -35.07085,4.57557 -25.74433,13.52826 -36.11107,44.50429 -22.81278,68.16498 3.73483,6.6451 12.91835,15.02898 20.06041,18.31368 7.80536,3.58974 18.6643,4.39853 27.38005,2.03929 3.1351,-0.84863 5.91859,-1.89637 6.18554,-2.3283 0.96098,-1.5549 6.48135,-0.86541 7.44195,0.92948 1.4369,2.68489 1.19106,3.12878 -3.36976,6.08408 -5.31566,3.44443 -10.74222,5.79012 -16.65512,7.19933 -6.08024,1.4491 -22.0228,-0.007 -29.22953,-2.66835 -17.64472,-6.51772 -30.58111,-19.48671 -37.50206,-37.59661 -2.71502,-7.10433 -3.09301,-9.15703 -3.44822,-18.72594 -0.82771,-22.29668 6.48832,-42.02993 21.40403,-57.73229 9.41763,-9.91431 18.56594,-15.95334 32.0143,-21.13344 6.59624,-2.54076 4.47223,-2.66061 -7.5607,-0.42659 -29.73454,5.52046 -50.42047,15.69432 -67.88598,33.38804 -27.12675,27.48118 -34.17779,63.4929 -18.90359,96.54609 4.0065,8.67003 14.37553,20.67539 24.8474,28.76859 18.17129,14.0437 37.31988,22.17427 58.44787,24.81721 8.80034,1.10085 26.49199,0.43079 33.68771,-1.27589 z"
       id="path2" />
    <path
       style="display:inline;fill:#b4001f;fill-opacity:1;stroke:#b4001f;stroke-width:1.77485;stroke-linecap:butt;stroke-linejoin:miter;stroke-dasharray:none;stroke-opacity:1;paint-order:normal"
       d="m 123.41081,298.90142 c -14.59715,-3.82919 -28.408898,-10.60053 -41.1176,-20.15828 -7.52522,-5.65945 -19.609915,-17.35186 -19.609915,-18.97336 0,-0.57668 1.798345,-4.84486 3.996322,-9.48483 7.827869,-16.5248 18.887351,-30.58439 31.895543,-40.54785 4.5759,-3.50487 6.66287,-5.68944 6.66338,-6.97503 0.002,-5.29365 2.05337,-22.44063 3.61775,-30.24152 14.17077,-70.66318 71.33953,-123.831064 143.54919,-133.503122 11.23273,-1.504558 32.82517,-1.3163 44.32761,0.386479 17.69318,2.619233 36.13718,8.429555 51.8633,16.338231 4.38844,2.206947 7.50402,4.17678 6.9235,4.377406 -0.58051,0.200626 -5.56736,-0.632438 -11.0819,-1.851253 -81.57153,-18.028823 -165.69568,23.189367 -202.42295,99.180879 -20.23901,41.87604 -23.59278,87.62063 -9.77735,133.36069 1.24099,4.10866 2.25633,7.99841 2.25633,8.64389 0,1.59765 -3.56447,1.42002 -11.08321,-0.55233 z m 54.52428,-133.53243 c 0,-1.66927 17.90035,-23.35557 25.14824,-30.46712 3.19667,-3.13655 6.72529,-5.83948 7.84135,-6.00654 1.11607,-0.16705 4.42291,-0.68962 7.34853,-1.16127 8.04101,-1.29632 27.58989,-1.04056 36.45416,0.47694 4.3304,0.74133 11.66346,2.57545 16.2957,4.07581 8.59619,2.78427 28.44715,12.42928 26.74749,12.99583 -0.51626,0.17209 -5.17454,-0.72755 -10.35172,-1.99919 -36.01457,-8.84611 -74.75382,-1.55975 -104.2065,19.59989 -4.07454,2.92727 -5.27725,3.49376 -5.27725,2.48565 z"
       id="path1" />
  </g>
  <metadata
     id="metadata3">
    <rdf:RDF>
      <cc:Work
         rdf:about="">
        <dc:title>Flespi Grafana</dc:title>
        <dc:creator>
          <cc:Agent>
            <dc:title>Dexif</dc:title>
          </cc:Agent>
        </dc:creator>
        <dc:date>2023-12-20</dc:date>
        <cc:license
           rdf:resource="http://creativecommons.org/licenses/by/4.0/" />
      </cc:Work>
      <cc:License
         rdf:about="http://creativecommons.org/licenses/by/4.0/">
        <cc:permits
           rdf:resource="http://creativecommons.org/ns#Reproduction" />
        <cc:permits
           rdf:resource="http://creativecommons.org/ns#Distribution" />
        <cc:requires
           rdf:resource="http://creativecommons.org/ns#Notice" />
        <cc:requires
           rdf:resource="http://creativecommons.org/ns#Attribution" />
        <cc:permits
           rdf:resource="http://creativecommons.org/ns#DerivativeWorks" />
      </cc:License>
    </rdf:RDF>
  </metadata>
</svg>
